HIERARCHY
ROOT hip
{
  OFFSET 0 0 0
  CHANNELS 6 Xposition Yposition Zposition Zrotation Yrotation Xrotation
  JOINT abdomen
  {
    OFFSET 0 20.6881 -0.73152
    CHANNELS 3 Zrotation Xrotation Yrotation
    JOINT chest
    {
      OFFSET 0 11.7043 -0.48768
      CHANNELS 3 Zrotation Xrotation Yrotation
      JOINT neck
      {
        OFFSET 0 22.1894 -2.19456
        CHANNELS 3 Zrotation Xrotation Yrotation
        JOINT head
        {
          OFFSET -0.24384 7.07133 1.2192
          CHANNELS 3 Zrotation Xrotation Yrotation
          JOINT leftEye
          {
            OFFSET 4.14528 8.04674 8.04672
            CHANNELS 3 Zrotation Xrotation Yrotation
            End Site
            {
              OFFSET 1 0 0
            }
          }
          JOINT rightEye
          {
            OFFSET -3.6576 8.04674 8.04672
            CHANNELS 3 Zrotation Xrotation Yrotation
            End Site
            {
              OFFSET 1 0 0
            }
          }
        }
      }
      JOINT rCollar
      {
        OFFSET -2.68224 19.2634 -4.8768
        CHANNELS 3 Zrotation Xrotation Yrotation
        JOINT rShldr
        {
          OFFSET -8.77824 -1.95073 1.46304
          CHANNELS 3 Zrotation Xrotation Yrotation
          JOINT rForeArm
          {
            OFFSET -28.1742 -1.7115 0.48768
            CHANNELS 3 Zrotation Xrotation Yrotation
            JOINT rHand
            {
              OFFSET -22.5879 0.773209 7.07136
              CHANNELS 3 Zrotation Xrotation Yrotation
              JOINT rThumb1
              {
                OFFSET -1.2192 -0.487915 3.41376
                CHANNELS 3 Zrotation Xrotation Yrotation
                JOINT rThumb2
                {
                  OFFSET -3.37035 -0.52449 3.41376
                  CHANNELS 3 Zrotation Xrotation Yrotation
                  End Site
                  {
                    OFFSET -1.78271 -1.18214 1.43049
                  }
                }
              }
              JOINT rIndex1
              {
                OFFSET -7.75947 0.938293 5.60832
                CHANNELS 3 Zrotation Xrotation Yrotation
                JOINT rIndex2
                {
                  OFFSET -2.54057 -0.884171 1.56538
                  CHANNELS 3 Zrotation Xrotation Yrotation
                  End Site
                  {
                    OFFSET -1.62519 -0.234802 1.16502
                  }
                }
              }
              JOINT rMid1
              {
                OFFSET -8.24714 1.18213 3.41376
                CHANNELS 3 Zrotation Xrotation Yrotation
                JOINT rMid2
                {
                  OFFSET -3.10165 -0.590103 1.0647
                  CHANNELS 3 Zrotation Xrotation Yrotation
                  End Site
                  {
                    OFFSET -2.48547 -0.328903 0.83742
                  }
                }
              }
              JOINT rRing1
              {
                OFFSET -8.82822 0.546677 1.51678
                CHANNELS 3 Zrotation Xrotation Yrotation
                JOINT rRing2
                {
                  OFFSET -2.60934 -0.819778 -0.0198488
                  CHANNELS 3 Zrotation Xrotation Yrotation
                  End Site
                  {
                    OFFSET -2.33842 -0.294052 0.168128
                  }
                }
              }
              JOINT rPinky1
              {
                OFFSET -8.27202 -0.0477905 -0.4584
                CHANNELS 3 Zrotation Xrotation Yrotation
                JOINT rPinky2
                {
                  OFFSET -1.82734 -0.647385 -0.700984
                  CHANNELS 3 Zrotation Xrotation Yrotation
                  End Site
                  {
                    OFFSET -1.69225 -0.51767 -0.607171
                  }
                }
              }
            }
          }
        }
      }
      JOINT lCollar
      {
        OFFSET 2.68224 19.2634 -4.8768
        CHANNELS 3 Zrotation Xrotation Yrotation
        JOINT lShldr
        {
          OFFSET 8.77824 -1.95073 1.46304
          CHANNELS 3 Zrotation Xrotation Yrotation
          JOINT lForeArm
          {
            OFFSET 28.1742 -1.7115 0.48768
            CHANNELS 3 Zrotation Xrotation Yrotation
            JOINT lHand
            {
              OFFSET 22.5879 0.773209 7.07136
              CHANNELS 3 Zrotation Xrotation Yrotation
              JOINT lThumb1
              {
                OFFSET 1.2192 -0.487915 3.41376
                CHANNELS 3 Zrotation Xrotation Yrotation
                JOINT lThumb2
                {
                  OFFSET 3.37035 -0.52449 3.41376
                  CHANNELS 3 Zrotation Xrotation Yrotation
                  End Site
                  {
                    OFFSET 1.78271 -1.18214 1.43049
                  }
                }
              }
              JOINT lIndex1
              {
                OFFSET 7.75947 0.938293 5.60832
                CHANNELS 3 Zrotation Xrotation Yrotation
                JOINT lIndex2
                {
                  OFFSET 2.54057 -0.884171 1.56538
                  CHANNELS 3 Zrotation Xrotation Yrotation
                  End Site
                  {
                    OFFSET 1.62519 -0.234802 1.16502
                  }
                }
              }
              JOINT lMid1
              {
                OFFSET 8.24714 1.18213 3.41376
                CHANNELS 3 Zrotation Xrotation Yrotation
                JOINT lMid2
                {
                  OFFSET 3.10165 -0.590103 1.0647
                  CHANNELS 3 Zrotation Xrotation Yrotation
                  End Site
                  {
                    OFFSET 2.48547 -0.328903 0.83742
                  }
                }
              }
              JOINT lRing1
              {
                OFFSET 8.82822 0.546677 1.51678
                CHANNELS 3 Zrotation Xrotation Yrotation
                JOINT lRing2
                {
                  OFFSET 2.60934 -0.819778 -0.0198488
                  CHANNELS 3 Zrotation Xrotation Yrotation
                  End Site
                  {
                    OFFSET 2.33842 -0.294052 0.168128
                  }
                }
              }
              JOINT lPinky1
              {
                OFFSET 8.27202 -0.0477905 -0.4584
                CHANNELS 3 Zrotation Xrotation Yrotation
                JOINT lPinky2
                {
                  OFFSET 1.82734 -0.647385 -0.700984
                  CHANNELS 3 Zrotation Xrotation Yrotation
                  End Site
                  {
                    OFFSET 1.69225 -0.51767 -0.607171
                  }
                }
              }
            }
          }
        }
      }
    }
  }
  JOINT rButtock
  {
    OFFSET -8.77824 4.35084 1.2192
    CHANNELS 3 Zrotation Xrotation Yrotation
    JOINT rThigh
    {
      OFFSET 0 -1.70687 -2.19456
      CHANNELS 3 Zrotation Xrotation Yrotation
      JOINT rShin
      {
        OFFSET 0 -36.8199 0.73152
        CHANNELS 3 Zrotation Xrotation Yrotation
        JOINT rFoot
        {
          OFFSET 0.73152 -45.1104 -5.12064
          CHANNELS 3 Zrotation Xrotation Yrotation
          End Site
          {
            OFFSET -1.1221 -3.69964 12.103
          }
        }
      }
    }
  }
  JOINT lButtock
  {
    OFFSET 8.77824 4.35084 1.2192
    CHANNELS 3 Zrotation Xrotation Yrotation
    JOINT lThigh
    {
      OFFSET 0 -1.70687 -2.19456
      CHANNELS 3 Zrotation Xrotation Yrotation
      JOINT lShin
      {
        OFFSET 0 -36.8199 0.73152
        CHANNELS 3 Zrotation Xrotation Yrotation
        JOINT lFoot
        {
          OFFSET -0.73152 -45.1104 -5.12064
          CHANNELS 3 Zrotation Xrotation Yrotation
          End Site
          {
            OFFSET 1.1221 -3.69964 12.103
          }
        }
      }
    }
  }
}
MOTION
Frames:	4
Frame Time:	0.00833333
79.3345 83.0153 -122.404 0.0 0.0 0.0 0.0256067 -6.19295e-06 0.000728849 0.00706487 8.62968e-06 0.00122384 2.09577e-17 0.0 3.49426e-18 6.21202e-17 3.18055e-15 1.0871e-17 -0.0 0.0 0.0 -0.0 0.0 0.0 4.83699e-17 -3.88251e-19 1.49089e-16 2.35707e-15 1.2424e-17 7.95139e-16 5.51627e-15 9.93923e-16 1.59028e-14 4.87022e-14 9.54166e-15 -1.27222e-14 1.15258e-13 2.31593e-14 2.22639e-14 1.94809e-13 3.81667e-14 3.73715e-14 1.20066e-13 2.3059e-14 1.27222e-14 7.73091 5.47488 0.417314 1.14401e-13 2.26615e-14 1.90833e-14 2.90554 0.965183 0.102902 1.20811e-13 2.32578e-14 1.98785e-14 10.2786 0.731801 0.0259123 1.12512e-13 2.5842e-14 2.54444e-14 2.22167 -0.733487 -0.20892 -4.83699e-17 -3.88251e-19 -1.49089e-16 -1.56174e-15 1.2424e-17 -7.95139e-16 3.13086e-15 5.96354e-16 -1.27222e-14 4.83482e-14 -6.5102e-15 2.54444e-14 1.14467e-13 -1.16283e-14 2.22639e-14 2.10314e-13 -2.22639e-14 3.97569e-14 1.09729e-13 -8.74653e-15 3.49861e-14 -7.73091 5.47488 -0.417314 1.15693e-13 -1.17283e-14 1.59028e-14 -2.90554 0.965183 -0.102902 1.10058e-13 -1.18277e-14 1.98785e-14 -10.2786 0.731801 -0.0259123 1.16488e-13 -1.03368e-14 1.27222e-14 -2.22167 -0.733487 0.20892 -2.03217e-16 0.0 -3.88251e-19 0.512296 -3.13364 -0.0420884 -0.00562799 0.123101 -0.0495522 -0.492795 3.00963 0.117359 2.03217e-16 0.0 3.88251e-19 -0.473329 -3.03453 0.0397105 0.00592201 -0.0564357 0.0521752 0.492509 3.09005 -0.118956
77.2605 80.5678 -122.336 5.7494 -30.0485 -3.1359 -1.47425 5.24362 -1.49733 0.379951 -1.9196 -0.461983 -2.87441 -0.646807 -0.358361 2.72238 -0.976369 0.278597 -0.0 0.0 0.0 -0.0 0.0 0.0 -1.85311e-14 2.73794e-14 9.48801e-14 20.8575 10.8006 -6.22818 -24.1185 -21.9717 14.6562 0.00138813 -0.874812 -0.122907 -2.67995e-10 6.85476e-10 1.48551e-10 -4.64348e-10 1.186e-09 2.5687e-10 -2.67991e-10 6.85478e-10 1.48534e-10 7.73091 5.47488 0.417314 -2.67997e-10 6.85477e-10 1.48548e-10 2.90554 0.965183 0.102902 -2.6799e-10 6.85477e-10 1.48549e-10 10.2786 0.731801 0.0259123 -2.67998e-10 6.85479e-10 1.48554e-10 2.22167 -0.733487 -0.20892 -1.86181e-14 2.73851e-14 9.45955e-14 -21.1526 12.8181 -0.291768 25.3389 -23.1178 -14.3225 -0.144664 -8.47728 1.14533 -4.32832e-10 -1.07161e-09 -5.9996e-10 -7.33143e-10 -1.86968e-09 -1.04641e-09 -4.32837e-10 -1.07161e-09 -5.99947e-10 -7.73091 5.47488 -0.417314 -4.32831e-10 -1.07161e-09 -5.99964e-10 -2.90554 0.965183 -0.102902 -4.32836e-10 -1.07161e-09 -5.99962e-10 -10.2786 0.731801 -0.0259123 -4.32831e-10 -1.07161e-09 -5.9997e-10 -2.22167 -0.733487 0.20892 -2.03217e-16 0.0 -3.88251e-19 3.83713 -14.8352 -5.00947 -0.00570878 14.8066 0.154549 -0.657194 -0.517531 -1.92023 2.03217e-16 0.0 3.88251e-19 2.03923 -7.02148 1.78621 -0.0435175 13.9835 -0.172065 0.46877 -1.13895 -0.398459
77.0499 80.9051 -119.904 6.2279 -29.9149 -2.9497 -2.80029 10.7622 -3.10054 0.725809 -3.96792 -0.949561 -5.91282 -1.34595 -0.750376 5.61319 -1.97992 0.545354 -0.0 0.0 0.0 -0.0 0.0 0.0 -4.18081e-14 5.6051e-14 2.03475e-13 45.6216 21.7533 -13.5206 -34.7761 -39.8858 37.6175 -0.00130756 -1.76651 -0.248291 -5.75224e-10 1.48871e-09 3.41782e-10 -9.96788e-10 2.57589e-09 5.91022e-10 -5.75222e-10 1.48872e-09 3.41757e-10 7.73091 5.47488 0.417314 -5.75228e-10 1.48872e-09 3.4178e-10 2.90554 0.965183 0.102902 -5.75219e-10 1.48871e-09 3.4178e-10 10.2786 0.731801 0.0259123 -5.75228e-10 1.48871e-09 3.41785e-10 2.22167 -0.733487 -0.20892 -4.18831e-14 5.6063e-14 2.03205e-13 -43.3712 26.4087 -0.636062 36.3475 -42.1573 -37.8504 0.0868013 -17.3526 2.43245 -9.37567e-10 -2.30201e-09 -1.29124e-09 -1.58818e-09 -4.01666e-09 -2.25226e-09 -9.37573e-10 -2.30201e-09 -1.29122e-09 -7.73091 5.47488 -0.417314 -9.37567e-10 -2.30201e-09 -1.29124e-09 -2.90554 0.965183 -0.102902 -9.37572e-10 -2.30201e-09 -1.29124e-09 -10.2786 0.731801 -0.0259123 -9.37568e-10 -2.30201e-09 -1.29125e-09 -2.22167 -0.733487 0.20892 -2.03217e-16 0.0 -3.88251e-19 4.8094 -26.9511 -11.168 -0.137583 30.6077 0.429299 -1.13133 -4.35839 -4.19382 2.03217e-16 0.0 3.88251e-19 4.92377 -11.1935 3.65357 0.0354709 28.7468 -0.455486 0.445432 -5.97407 -0.511079
76.3806 81.2517 -117.548 6.0376 -30.6852 -2.9468 -3.62526 15.687 -4.64812 1.03222 -5.7573 -1.39465 -8.6475 -1.94012 -1.07563 8.19566 -2.92883 0.836762 -0.0 0.0 0.0 -0.0 0.0 0.0 -5.56899e-14 8.21391e-14 2.84342e-13 70.4382 30.7453 -21.4907 -31.0111 -44.6173 66.3942 -0.00710516 -2.62439 -0.369066 -8.04215e-10 2.05638e-09 4.45608e-10 -1.39343e-09 3.55794e-09 7.70534e-10 -8.04215e-10 2.05639e-09 4.45578e-10 7.73091 5.47488 0.417314 -8.0422e-10 2.05639e-09 4.45607e-10 2.90554 0.965183 0.102902 -8.0421e-10 2.05639e-09 4.45607e-10 10.2786 0.731801 0.0259123 -8.0422e-10 2.05638e-09 4.45611e-10 2.22167 -0.733487 -0.20892 -5.57575e-14 8.2156e-14 2.84085e-13 -62.9742 38.4497 -1.08984 31.1856 -47.0158 -68.749 0.674421 -25.3889 3.76226 -1.29872e-09 -3.21481e-09 -1.79992e-09 -2.19985e-09 -5.60899e-09 -3.13932e-09 -1.29873e-09 -3.21481e-09 -1.79991e-09 -7.73091 5.47488 -0.417314 -1.29872e-09 -3.21481e-09 -1.79992e-09 -2.90554 0.965183 -0.102902 -1.29873e-09 -3.21481e-09 -1.79993e-09 -10.2786 0.731801 -0.0259123 -1.29873e-09 -3.21481e-09 -1.79993e-09 -2.22167 -0.733487 0.20892 -2.03217e-16 0.0 -3.88251e-19 3.15693 -36.9801 -18.1922 -0.418937 44.1712 0.763128 -1.74174 -7.53108 -6.0472 2.03217e-16 0.0 3.88251e-19 7.81543 -14.9414 5.42298 0.279132 42.0608 -0.815235 0.295975 -9.59569 -0.971163
